<svg width="24" height="24" viewBox="0 0 24 24" fill="none" xmlns="http://www.w3.org/2000/svg">
<path d="M12 5V13.55C11.06 13.01 9.90001 12.8 8.67001 13.23C7.33001 13.71 6.30001 14.9 6.06001 16.3C5.94906 16.9299 5.99053 17.5773 6.18095 18.1879C6.37137 18.7986 6.70521 19.3547 7.15455 19.81C7.6039 20.2652 8.1557 20.6062 8.76381 20.8046C9.37192 21.0029 10.0187 21.0528 10.65 20.95C12.61 20.64 14 18.84 14 16.85V7H16C17.1 7 18 6.1 18 5C18 3.9 17.1 3 16 3H14C12.9 3 12 3.9 12 5Z" fill="#F8F8F8"/>
</svg>
