<svg width="18" height="18" viewBox="0 0 18 18" fill="none" xmlns="http://www.w3.org/2000/svg">
<path d="M11.3457 16.6834L4.2322 9.59103C4.14777 9.5066 4.08782 9.41513 4.05236 9.31662C4.0169 9.21812 3.99945 9.11258 4.00001 9C4.00001 8.88742 4.01746 8.78188 4.05236 8.68338C4.08726 8.58487 4.14721 8.4934 4.2322 8.40897L11.3457 1.29551C11.5427 1.0985 11.7889 1 12.0844 1C12.38 1 12.6333 1.10554 12.8443 1.31662C13.0554 1.5277 13.161 1.77397 13.161 2.05541C13.161 2.33685 13.0554 2.58311 12.8443 2.7942L6.63854 9L12.8443 15.2058C13.0413 15.4028 13.1399 15.6457 13.1399 15.9345C13.1399 16.2232 13.0343 16.4729 12.8232 16.6834C12.6121 16.8945 12.3659 17 12.0844 17C11.803 17 11.5567 16.8945 11.3457 16.6834Z" fill="#D0BCFF"/>
</svg>
