<svg width="24" height="24" viewBox="0 0 24 24" fill="none" xmlns="http://www.w3.org/2000/svg">
<path d="M8.02495 14.3813L14.3906 8.02506C14.6063 7.84553 14.8813 7.75309 15.1616 7.76588C15.4419 7.77868 15.7074 7.89578 15.9058 8.09422C16.1042 8.29265 16.2213 8.55808 16.2341 8.83842C16.2469 9.11875 16.1545 9.39375 15.975 9.60943L9.60933 15.9751C9.39863 16.184 9.11389 16.3013 8.81714 16.3013C8.52039 16.3013 8.23566 16.184 8.02495 15.9751C7.92007 15.8705 7.83686 15.7463 7.78008 15.6096C7.7233 15.4729 7.69407 15.3262 7.69407 15.1782C7.69407 15.0301 7.7233 14.8835 7.78008 14.7468C7.83686 14.61 7.92007 14.4858 8.02495 14.3813ZM12.7968 15.9751L10.1437 18.6282C9.5064 19.2387 8.65527 19.5754 7.77274 19.5659C6.89021 19.5565 6.0465 19.2017 5.42242 18.5776C4.79834 17.9535 4.44355 17.1098 4.43409 16.2273C4.42464 15.3447 4.76126 14.4936 5.37183 13.8563L8.02495 11.2032C8.12983 11.0987 8.21305 10.9745 8.26983 10.8377C8.32661 10.701 8.35584 10.5544 8.35584 10.4063C8.35584 10.2582 8.32661 10.1116 8.26983 9.97489C8.21305 9.83814 8.12983 9.71395 8.02495 9.60943C7.8115 9.40211 7.52565 9.28614 7.22808 9.28614C6.93051 9.28614 6.64466 9.40211 6.4312 9.60943L3.77808 12.2626C2.7226 13.318 2.12964 14.7496 2.12964 16.2422C2.12964 17.7349 2.7226 19.1665 3.77808 20.2219C4.83356 21.2774 6.26509 21.8704 7.75777 21.8704C9.25044 21.8704 10.682 21.2774 11.7375 20.2219L14.3812 17.5688C14.4861 17.4643 14.5693 17.3401 14.6261 17.2034C14.6829 17.0666 14.7121 16.92 14.7121 16.7719C14.7121 16.6239 14.6829 16.4773 14.6261 16.3405C14.5693 16.2038 14.4861 16.0796 14.3812 15.9751C14.2775 15.8705 14.1541 15.7874 14.0181 15.7308C13.8822 15.6741 13.7363 15.645 13.589 15.645C13.4417 15.645 13.2959 15.6741 13.1599 15.7308C13.0239 15.7874 12.9005 15.8705 12.7968 15.9751ZM20.2218 3.77818C19.1655 2.72423 17.7343 2.13232 16.2421 2.13232C14.75 2.13232 13.3187 2.72423 12.2625 3.77818L9.60933 6.43131C9.40201 6.64476 9.28604 6.93062 9.28604 7.22818C9.28604 7.52575 9.40201 7.8116 9.60933 8.02506C9.71385 8.12994 9.83804 8.21315 9.97478 8.26994C10.1115 8.32672 10.2581 8.35594 10.4062 8.35594C10.5543 8.35594 10.7009 8.32672 10.8376 8.26994C10.9744 8.21315 11.0986 8.12994 11.2031 8.02506L13.8562 5.37193C14.167 5.0475 14.5395 4.78839 14.9518 4.6098C15.3641 4.43121 15.8078 4.33674 16.2571 4.33193C16.7064 4.32711 17.1521 4.41205 17.5681 4.58177C17.9841 4.75148 18.3621 5.00255 18.6798 5.32025C18.9975 5.63795 19.2485 6.01589 19.4182 6.4319C19.588 6.84791 19.6729 7.29362 19.6681 7.7429C19.6633 8.19217 19.5688 8.63596 19.3902 9.04823C19.2116 9.46051 18.9525 9.83299 18.6281 10.1438L15.975 12.7969C15.8215 12.956 15.7179 13.1563 15.6767 13.3734C15.6356 13.5906 15.6588 13.815 15.7434 14.0191C15.828 14.2232 15.9705 14.3982 16.1532 14.5225C16.3359 14.6468 16.5509 14.715 16.7718 14.7188C16.9206 14.7195 17.068 14.69 17.205 14.632C17.342 14.5739 17.4657 14.4887 17.5687 14.3813L20.2218 11.7376C20.7448 11.2151 21.1597 10.5948 21.4428 9.91191C21.7259 9.22904 21.8716 8.49708 21.8716 7.75787C21.8716 7.01866 21.7259 6.28669 21.4428 5.60383C21.1597 4.92097 20.7448 4.30059 20.2218 3.77818Z" fill="#F8F8F8"/>
</svg>
